# xmcd
#
# Track frame offsets:
#	150
#	13851
#	22789
#	33502
#	45817
#	68608
#	80701
#	91850
#	103476
#	115465
#	130304
#
# Disc length: 1897 seconds
#
# Revision: 1
# Processed by: cddbd v1.5.2PL0 Copyright (c) Steve Scherf et al.
# Submitted via: audiograbber 1.83.01
#
DISCID=8707670b
DTITLE=Johnny Cash - Happiness Is You
DYEAR=1966
DGENRE=Country
TTITLE0=Happiness Is You
TTITLE1=Guess Things Happen That Way
TTITLE2=Ancient History
TTITLE3=You Comb Her Hair
TTITLE4=She Came From The Mountains
TTITLE5=For Lovin' Me
TTITLE6=No One Will Ever Know
TTITLE7=This Is My Destiny
TTITLE8=A Wound Time Can't Erase
TTITLE9=Happy To Be WIth You
TTITLE10=Wabash Cannonball
EXTD=
EXTT0=
EXTT1=
EXTT2=
EXTT3=
EXTT4=
EXTT5=
EXTT6=
EXTT7=
EXTT8=
EXTT9=
EXTT10=
PLAYORDER=
